<?xml version="1.0" encoding="utf-8"?>
<!-- Generator: Adobe Illustrator 22.0.0, SVG Export Plug-In . SVG Version: 6.00 Build 0)  -->
<svg version="1.1" xmlns="http://www.w3.org/2000/svg" xmlns:xlink="http://www.w3.org/1999/xlink" x="0px" y="0px"
	 viewBox="0 0 1000 1000" style="enable-background:new 0 0 1000 1000;" xml:space="preserve">
<style type="text/css">
	.st0{fill:#FFFFFF;}
</style>
<g id="Layer_1">
	<polygon class="st0" points="34.1,175.8 524.6,175.8 525.1,207.5 63.1,207.5 63.1,789.6 525.1,789.6 525.1,824.2 34.1,824.2 	"/>
</g>
<g id="Layer_2">
	<g>
		<polygon class="st0" points="965.9,175.8 475.4,175.8 474.9,207.5 936.9,207.5 936.9,789.6 474.9,789.6 474.9,824.2 965.9,824.2 
					"/>
	</g>
</g>
<g id="Layer_3">
	<path class="st0" d="M206.6,213.9H70.4V782H222c0,0-93.4-105.5-16.5-206.6l7.7-92.3c0,0,157.1-71.4,163.7-269.2H206.6z"/>
	<path class="st0" d="M792.9,213.9h136.3V782H777.5c0,0,93.4-105.5,16.5-206.6l-7.7-92.3c0,0-157.1-71.4-163.7-269.2H792.9z"/>
</g>
</svg>
